<?xml version="1.0" encoding="UTF-8"?>
<svg xmlns="http://www.w3.org/2000/svg" id="Layer_1" data-name="Layer 1" viewBox="0 0 24 24" width="512" height="512"><path d="M14.41,0H5c-1.65,0-3,1.35-3,3V24H22V7.59L14.41,0Zm.59,3.41l3.59,3.59h-3.59V3.41Zm5,18.59H4V3c0-.55,.45-1,1-1H13v7h7v13ZM6.97,13h-1.97v6.07h1.25v-2.1h.72c1.11,0,2.01-.89,2.01-1.99s-.9-1.98-2.01-1.98Zm0,2.72h-.71s0-1.47,0-1.47h.71c.41,0,.76,.34,.76,.73s-.35,.73-.76,.73Zm5.03-2.65c-.27,0-.52,0-.75,0h-1.25s0,6,0,6h1.25c.23,0,.48,0,.75,0h0c1.11,0,2-.89,2-1.98v-2.03c0-1.09-.89-1.98-2-1.98h0Zm.75,2v2c0,.45-.36,.75-.75,.75-.14,0-.43,0-.75,0v-3.5c.32,0,.61,0,.75,0,.39,0,.75,.3,.75,.75Zm3.5,4h-1.25v-6.07h4v1.25h-2.75v1.47s1.75,0,1.75,0v1.25h-1.75v2.1Z"/></svg>
