<?xml version="1.0" encoding="UTF-8"?>
<svg id="Layer_2" data-name="Layer 2" xmlns="http://www.w3.org/2000/svg" xmlns:xlink="http://www.w3.org/1999/xlink" viewBox="0 0 225.91 157.04">
  <defs>
    <style>
      .cls-1 {
        fill: url(#Degradado_sin_nombre_30-2);
      }

      .cls-1, .cls-2, .cls-3, .cls-4, .cls-5 {
        stroke: #000;
        stroke-miterlimit: 10;
        stroke-width: .5px;
      }

      .cls-2 {
        fill: url(#Degradado_sin_nombre_30-4);
      }

      .cls-3 {
        fill: url(#linear-gradient);
      }

      .cls-4 {
        fill: url(#Degradado_sin_nombre_30-3);
      }

      .cls-5 {
        fill: url(#Degradado_sin_nombre_30);
      }
    </style>
    <linearGradient id="Degradado_sin_nombre_30" data-name="Degradado sin nombre 30" x1="107.56" y1="59.23" x2="225.66" y2="59.23" gradientUnits="userSpaceOnUse">
      <stop offset="0" stop-color="#c2983a"/>
      <stop offset=".27" stop-color="#c2983b"/>
      <stop offset=".37" stop-color="#c49c42"/>
      <stop offset=".44" stop-color="#c8a24e"/>
      <stop offset=".49" stop-color="#cdab5f"/>
      <stop offset=".54" stop-color="#d4b775"/>
      <stop offset=".58" stop-color="#dcc590"/>
      <stop offset=".62" stop-color="#e6d6b1"/>
      <stop offset=".66" stop-color="#f2e9d5"/>
      <stop offset=".69" stop-color="#fff"/>
      <stop offset=".69" stop-color="#fdfcfa"/>
      <stop offset=".72" stop-color="#efe5cd"/>
      <stop offset=".75" stop-color="#e3d0a5"/>
      <stop offset=".78" stop-color="#d9be84"/>
      <stop offset=".81" stop-color="#d0b069"/>
      <stop offset=".84" stop-color="#caa554"/>
      <stop offset=".88" stop-color="#c59d45"/>
      <stop offset=".93" stop-color="#c2993c"/>
      <stop offset="1" stop-color="#c2983a"/>
    </linearGradient>
    <linearGradient id="linear-gradient" x1="169.01" y1="69.85" x2="207.96" y2="69.85" gradientTransform="translate(9.94 44.99) rotate(-11.93) scale(.85 .89)" gradientUnits="userSpaceOnUse">
      <stop offset="0" stop-color="#c2983a"/>
      <stop offset=".39" stop-color="#c2983b"/>
      <stop offset=".53" stop-color="#c49c42"/>
      <stop offset=".63" stop-color="#c8a24e"/>
      <stop offset=".72" stop-color="#cdab5f"/>
      <stop offset=".79" stop-color="#d4b775"/>
      <stop offset=".85" stop-color="#dcc590"/>
      <stop offset=".9" stop-color="#e6d6b1"/>
      <stop offset=".95" stop-color="#f2e9d5"/>
      <stop offset="1" stop-color="#fff"/>
      <stop offset="1" stop-color="#fdfcfa"/>
      <stop offset="1" stop-color="#efe5cd"/>
      <stop offset="1" stop-color="#e3d0a5"/>
      <stop offset="1" stop-color="#d9be84"/>
      <stop offset="1" stop-color="#d0b069"/>
      <stop offset="1" stop-color="#caa554"/>
      <stop offset="1" stop-color="#c59d45"/>
      <stop offset="1" stop-color="#c2993c"/>
      <stop offset="1" stop-color="#c2983a"/>
    </linearGradient>
    <linearGradient id="Degradado_sin_nombre_30-2" data-name="Degradado sin nombre 30" x1="1.44" y1="69.98" x2="101.31" y2="69.98" xlink:href="#Degradado_sin_nombre_30"/>
    <linearGradient id="Degradado_sin_nombre_30-3" data-name="Degradado sin nombre 30" x1="52.33" y1="87.51" x2="127.76" y2="87.51" xlink:href="#Degradado_sin_nombre_30"/>
    <linearGradient id="Degradado_sin_nombre_30-4" data-name="Degradado sin nombre 30" x1="107.72" y1="87.69" x2="180.86" y2="87.69" xlink:href="#Degradado_sin_nombre_30"/>
  </defs>
  <g id="Capa_1" data-name="Capa 1">
    <g>
      <g>
        <path class="cls-5" d="m204.83.32c1.16-.06,3.84,0,5-.06.06,1.05.11,2.1.17,3.15l-3.6.06c.06,7.01.11,14.01.17,21.02.89-.27,1.95-.49,3.15-.56,3.33.79,6.25,1.87,8.02,1.85.29-.78.96-1.32,1.71-1.41.94-.1,1.94.52,1.99,1.12.37,1.52-.89,2.04-1.27,2.14.05.32.15.83.28,1.46.85,4.18,1.55,7.6,3.43,8.17.94.29,1.67-.29,1.77-.07.19.41-2.33,2.94-5.61,3.15-3.5.22-6.53-2.3-6.34-2.85.09-.26.83.17,1.77-.22,1.98-.83,2.51-4.32,3.1-8.28.1-.65.16-1.18.2-1.51-2.45-.47-4.5-.66-5.95-.74-4.88-.27-5.76.52-6.12,1.01-.27.37-.33.99-.46,2.25-.13,1.28-.33,3.45.46,6,.3.95.46,1.06.7,1.76,1.28,3.67-.31,8.65-1.55,8.69-1.23.04-3.26-4.76-1.83-8.52.3-.8.72-1.44,1.12-1.93-.05-2.72-.1-5.45-.15-8.17-1.21-.5-2.91-1.06-5.02-1.26-2.94-.28-5.34.27-6.8.73-.17.71-.45,1.56-.28,2.47.66,3.37,1.46,7.29,3.1,7.42.5.04,1.86-.21,2.13.06,0,0,0,0,0,.01.25.64-2.76,3.4-6.27,3.3-3.4-.1-6.12-3.02-5.9-3.45.13-.26,1.36.91,2.45.19,1.18-.79,2.22-4.69,2.78-7.46.29-.84.03-1.83-.44-2.7-.66-1.22-.46-2.4.03-2.74.02-.01.03-.02.04-.03.52-.32,1.19.98,2.66,1.42,2.29.69,3.72-1.36,7.08-1.65.92-.08,2.38-.06,4.26.63.14-5.94.27-11.89.41-17.83-.16.66.36-4.61-.22-3.28-3.46,7.92-11.61,15.58-18.8,24.41-1.8,2.21-3.48,4.76-2.82,7.08.35,1.24,1.21,1.89,1.33,3.43.12,1.69-.76,3.15-1.55,4.14.09,1.8.17,3.6.26,5.4-1.46-1.21-2.98-1.51-3.72-.9-.41.34-.67,1.04-.44,1.35.39.53,1.99-.57,2.8.15.37.33.52.99.3,1.27-.51.63-2.62-.92-3.39-.15-.28.27-.34.81-.15,1.12.5.81,2.39-.28,3.61.22,2.93,1.2,3.69,12.13-1.88,17.18-1.45,1.31-2.41,1.4-4.14,2.32-3.38,1.79-7.58,5.62-10.57,14.75-2.21-.51,1.18-8,1.48-8.92,0-.01.02-.05,0-.07-.07-.09-1.13,1.62-1.41.75-1.81-5.63-1.89-8.75-1.59-10.8.08-.57,0-1.25.41-1.86.9-1.33,3.03-1.39,3.02-1.42,0-.04-3.18.69-3.32.3-.15-.4,3.06-1.76,2.88-2.4-.17-.6-3.21.07-3.47-.67-.26-.74,2.61-1.77,2.58-3.45-.02-1.38-1.96-1.84-1.84-2.92.17-1.55,4.35-2.02,4.28-2.92-.05-.63-2.1-.4-2.88-1.8-.58-1.04.13-1.96-.59-2.85-.58-.72-1.29-.43-1.77-1.05-.89-1.14,1.78-3.29.77-3.68-.28-.11-2.21,1.8-4.08,4.96-1.32,2.22-2.22,4.17-2.8,5.55-.92,4.19-5.36,9.88-5.26,10.21,2.3,7.44,7.1,22.35,15.15,41.84-1.39,4.28-3.14,9.61-4.54,13.92-1.09.02-1.08.02-2.18.04-2.58-6.95-7.75-20.86-7.75-20.86-2.12-5.29-4.24-10.58-6.36-15.88l-.46-1.01c-.06-.18-.13-.36-.19-.54C131.11,36.24,117.25.71,107.86,3.62c-.1-1.1-.2-2.2-.3-3.3h40.12c-.1,1.15-.2,2.3-.3,3.45-6.39-.86-8.9.72-10.03,2.1-2.99,3.65-4.63,6.64,2.4,24.82,3.13,8.11,6.61,18.32,8.22,22.7,2.21-5,8.12-9.85,10.33-14.84,1.78-.05,2.67-.17,2.69-.37.01-.17-.62-.4-1.9-.69.15-.94.53-2.52,1.64-4.1.61-.87,1.26-1.5,1.81-1.95-.28-.66-.69-1.86-.66-3.41.02-1.37.38-2.44.65-3.07.56-1.22,1.27-1.52,1.94-1.46.58.05-.22-.96.06-1.46.32-.57.96-.36,1.33-.96.27-.44.24-1.06,0-1.46-.32-.55-1.02-.42-1.38-.79-1.27-1.26-.85-7.09-.5-7.08.28,0,.43.39.77.34.7-.1.75-1.98,1.16-2.81,1.16-2.35,7.15-3.56,10.34-1.29,1.27.9,1.73,2.4,1.77,3.09.01.19,0,.49-.18.77-.4.61-1.28.53-1.31.8-.02.26.78.3,1.21.96.35.53.33,1.26.11,1.41-.28.19-.77-.75-1.55-.67-.38.04-.76.31-.75.51.02.23.55.32.97.45,1.76.56,2.95,2.4,2.73,2.7-.17.23-1.13-.47-1.48-.11-.45.45.63,2.11.13,2.53-.18.15-.5.1-.5.19,0,.08.21.16.43.22-.09.63-.17,1.26-.26,1.89-.33-.01-2.91-.51-3.49,1.35-.48,1.56-1,3.62-.83,5.34,5.81-3.47,7.77-4.64,8.52-4.55.56.37,1.14,1.35,1.33,1.24.19-.11-.38-.92-.33-1.74.11-1.67,2.92-2.03,5.56-4.2,1.2-.98,2.03-2.21,2.79-3.23.73-.97,1.47-1.65,1.89-2.35.75-.81,1.58-2.29,2.31-4.11,1.17-2.89.97-5.49.78-6.74-3.95.02-7.91.03-11.87.04-1.13,0-3.66,0-4.79.01-.06-1.16-.11-2.32-.17-3.48,8.54.02,17.07.04,25.61.06"/>
        <path class="cls-3" d="m190.21,45.23c.81,5.79.92,13.63-3.39,19.85-3.13,4.53-5.53,7.76-9.34,9.73-5.09,2.62-9.05,10.5-8.71,25.65,2.04-5.58,4.77-10.75,7.9-15.31,3.15-4.59,6.41-5.9,10.32-11.66,1.65-2.44,3.81-5.61,5.01-9.71,2.25-7.62.07-14.48-1.8-18.55Z"/>
      </g>
      <g>
        <path class="cls-1" d="m1.44,4.11c2.51.06,17.93.68,27.76,13.11,4.45,5.62,6.04,11.5,6.67,15.07-.59,14.77-1.5,30.11-2.82,45.98-1.3,15.68-2.9,30.79-4.73,45.3-.42,1.17-1.56,3.86-4.32,5.92-4.23,3.16-8.96,2.38-9.84,2.21v2.74c10.66.02,21.32.05,31.97.07.02-.8.05-1.6.07-2.4-5.32.04-8.81-2.05-8.7-8.32,2.05-25.95,4.11-51.91,6.16-77.86,14.16,30.59,28.32,61.18,42.48,91.77,5.05-12.52,10.1-25.03,15.16-37.55-1.01-2.47-2.03-4.94-3.04-7.4-3.56,7.78-7.12,15.55-10.68,23.33-14.37-31.55-28.74-63.1-43.11-94.65-1.36-2.51-7.34-12.85-20.19-17.25-10.66-3.65-19.78-1.07-22.85-.06Z"/>
        <path class="cls-4" d="m113.26,42.63v-19.78c-3.21.32-5.8.2-7.6.04-2.27-.21-2.75-.46-5.7-.77-1.71-.18-4.28-.45-7.17-.35-.41.01-3.29.12-5.92.67-1.33.28-2.63.67-2.63.67s-.7.21-1.38.45c-3.43,1.2-11.06,4.56-15.41,12.87,0,0-4.38,8.32-2.48,17.67.07.37.14.66.19.88.25,1.07,1.56,6.33,5.9,11.57,2.54,3.07,5.23,5.05,7.15,6.26,4.06,2.76,8.12,5.52,12.18,8.28.52.39,1.04.78,1.56,1.17.66.53,1.32,1.05,1.99,1.58,1.6,1.17,3.82,2.89,6.29,5.16,4.95,4.55,11.16,10.27,14.12,18.18.76,2.03,5.52,15.68-2.66,27.58-7.89,11.47-21.88,11.84-24.63,11.84-2.07,0-18.94-.31-26.99-14.91-5.16-9.35-4.74-21.03.96-30.43-1.33-.07-2.66-.15-3.98-.22-1.31,2.37-7.36,13.89-3.39,27.65,2.54,8.81,7.88,14.38,10.92,16.79,13.37,10.59,29.34,8.47,40.27,5.02,5.03-1.59,12.04-6.64,19.03-17.91.71-1.15,7.45-15.35,1.33-31.1-.92-2.36-1.92-4.4-3.14-6.3-3.8-5.93-8.03-9.24-12.35-12.51h0c-3.47-2.81-7.18-5.66-11.14-8.53-3.99-2.89-7.89-5.56-11.67-8.01-2.79-1.82-6.73-4.99-9.83-10.24-.6-1.02-.92-1.68-.99-1.85-4.06-8.91-.37-16.86-.37-16.86,1.92-3.93,4.88-6.05,5.99-6.83,7.66-5.35,16.44-3.02,17.1-2.84,11.08,3.13,14.31,14.58,14.46,15.14Z"/>
        <path class="cls-2" d="m110.15,76.83l-2.42-7.63c7.19-16.87,14.37-33.74,21.56-50.62,4.99,32.9,9.98,65.81,14.97,98.71,4.21,20.5,15.02,34.68,36.6,38.55-1.9.43-4.41.85-7.34.93-1.74.05-5.4,0-9.85-1.14-2.53-.64-14.57-3.71-21.85-14.96,0,0-.61-.95-1.18-1.97-6.62-12.02-13.91-70.23-16.73-94.14-4.59,10.75-9.17,21.51-13.76,32.26Z"/>
      </g>
    </g>
  </g>
</svg>